<svg width="40" height="40" viewBox="0 0 40 40" fill="none" xmlns="http://www.w3.org/2000/svg">
<g clip-path="url(#clip0_1_356)">
<path d="M34.1426 5.8575C30.3653 2.08023 25.3427 0 20 0C14.6573 0 9.63469 2.08023 5.85742 5.8575C2.08023 9.63469 0 14.6573 0 20C0 25.3427 2.08023 30.3653 5.85742 34.1425C9.63469 37.9198 14.6573 40 20 40C25.3427 40 30.3653 37.9198 34.1426 34.1425C37.9198 30.3653 40 25.3427 40 20C40 14.6573 37.9198 9.63469 34.1426 5.8575ZM33.2678 33.2678C29.7241 36.8113 25.0122 38.7629 20 38.7629C14.9878 38.7629 10.2759 36.8113 6.73219 33.2678C3.18859 29.7242 1.23711 25.0123 1.23711 20C1.23711 14.9877 3.18859 10.2758 6.73219 6.73219C10.2759 3.18867 14.9878 1.23711 20 1.23711C25.0122 1.23711 29.7241 3.18867 33.2678 6.73219C36.8114 10.2758 38.7629 14.9877 38.7629 20C38.7629 25.0123 36.8114 29.7242 33.2678 33.2678Z" fill="black"/>
<path d="M20.0001 3.71094C17.6955 3.71094 15.4681 4.18344 13.3799 5.11516C11.3637 6.01477 9.57588 7.29602 8.06713 8.92227C5.2583 11.9361 3.71143 15.8702 3.71143 19.9996C3.71143 24.129 5.2583 28.0631 8.06627 31.076C9.57604 32.7031 11.3638 33.9845 13.3801 34.8841C15.4681 35.8158 17.6956 36.2883 20.0002 36.2883C22.2528 36.2883 24.4335 35.8367 26.4818 34.9462C28.4643 34.0844 30.2298 32.8541 31.7272 31.2916C34.6687 28.2519 36.2888 24.2416 36.2888 19.9996C36.2888 11.018 28.9817 3.71094 20.0001 3.71094ZM30.836 30.4335C27.9823 33.4112 24.134 35.0512 20.0001 35.0512C17.8703 35.0512 15.8126 34.6148 13.8842 33.7544C12.021 32.923 10.3688 31.7389 8.97213 30.2337C6.37752 27.4495 4.94854 23.8149 4.94854 19.9996C4.94854 16.1843 6.37752 12.5498 8.97315 9.76461C10.3688 8.26039 12.021 7.07617 13.8842 6.24484C15.8126 5.38445 17.8703 4.94805 20.0001 4.94805C28.2996 4.94805 35.0517 11.7002 35.0517 19.9996C35.0517 23.9189 33.5553 27.6235 30.836 30.4335Z" fill="black"/>
<path d="M20.6185 5.97937H19.3814V9.6907H20.6185V5.97937Z" fill="black"/>
<path d="M20.6185 30.3096H19.3813V34.0209H20.6185V30.3096Z" fill="black"/>
<path d="M34.0207 19.3818H30.7217V20.6189H34.0207V19.3818Z" fill="black"/>
<path d="M9.27848 19.3818H5.97949V20.6189H9.27848V19.3818Z" fill="black"/>
<path d="M10.1277 10.0771L9.25293 10.9519L11.7273 13.4263L12.6021 12.5516L10.1277 10.0771Z" fill="black"/>
<path d="M29.4607 10.0781L26.9863 12.5526L27.8611 13.4273L30.3355 10.9529L29.4607 10.0781Z" fill="black"/>
<path d="M27.8596 26.5732L26.9849 27.448L29.4593 29.9224L30.334 29.0476L27.8596 26.5732Z" fill="black"/>
<path d="M11.7289 26.5731L9.25446 29.0475L10.1292 29.9222L12.6036 27.4478L11.7289 26.5731Z" fill="black"/>
<path d="M20.6185 19.3318V11.7529H19.3813V19.8442L25.3357 25.7986L26.2106 24.9238L20.6185 19.3318Z" fill="black"/>
</g>
<defs>
<clipPath id="clip0_1_356">
<rect width="40" height="40" fill="white"/>
</clipPath>
</defs>
</svg>
